<svg xmlns="http://www.w3.org/2000/svg" width="24" height="18.667" viewBox="0 0 24 18.667">
  <path id="book-open" d="M22.538,33.032A16.747,16.747,0,0,0,17.158,32,12.151,12.151,0,0,0,12,33.156,12.293,12.293,0,0,0,6.867,32a16.033,16.033,0,0,0-5.4,1.032A2.222,2.222,0,0,0,0,35.112V47.733a1.879,1.879,0,0,0,.787,1.533,1.932,1.932,0,0,0,1.7.283,11.34,11.34,0,0,1,8.929.925,1,1,0,0,0,.549.193,1.066,1.066,0,0,0,.586-.191,11.258,11.258,0,0,1,8.929-.928,1.925,1.925,0,0,0,1.7-.284A1.823,1.823,0,0,0,24,47.733V35.112A2.224,2.224,0,0,0,22.538,33.032Zm-11.2,15.889A12.633,12.633,0,0,0,5.9,47.7a12.989,12.989,0,0,0-3.8.574.6.6,0,0,1-.529-.085.6.6,0,0,1-.234-.452V35.112a.88.88,0,0,1,.577-.826,14.6,14.6,0,0,1,4.943-.953,11.028,11.028,0,0,1,4.479.986Zm11.333-1.187a.549.549,0,0,1-.233.452.6.6,0,0,1-.529.089,12.787,12.787,0,0,0-9.238.656V34.319a11.023,11.023,0,0,1,4.475-.986,14.755,14.755,0,0,1,4.95.953.883.883,0,0,1,.575.826Z" transform="translate(0 -32)" fill="#fff"/>
</svg>
