<svg xmlns="http://www.w3.org/2000/svg" width="52" height="54" viewBox="0 0 52 54">
  <g id="circle-user" transform="translate(-166.008 -9.428)">
    <rect id="Rectangle_108" data-name="Rectangle 108" width="52" height="54" transform="translate(166.008 9.428)" fill="none"/>
    <path id="cart-shopping-fast" d="M29.453,22.656a3.172,3.172,0,1,0,3.172,3.172A3.172,3.172,0,0,0,29.453,22.656Zm0,4.531a1.359,1.359,0,1,1,1.359-1.359A1.361,1.361,0,0,1,29.453,27.188ZM35.9,4.345a1.841,1.841,0,0,0-1.467-.72H9.7L9.04.706A.906.906,0,0,0,8.156,0H4.531a.906.906,0,0,0,0,1.813h2.9L11.8,21.042a.907.907,0,0,0,.883.708H31.719a.906.906,0,0,0,0-1.812H13.413L13,18.125H30.6a2.709,2.709,0,0,0,2.623-1.912L36.183,5.842A1.712,1.712,0,0,0,35.9,4.345ZM31.481,15.712a.891.891,0,0,1-.884.6H12.688a.844.844,0,0,0-.1.019l-2.476-10.9,24.327-.088ZM14.047,22.656a3.172,3.172,0,1,0,3.172,3.172A3.172,3.172,0,0,0,14.047,22.656Zm0,4.531a1.359,1.359,0,1,1,1.359-1.359A1.361,1.361,0,0,1,14.047,27.188ZM.906,12.688H7.25a.906.906,0,0,0,0-1.812H.906a.906.906,0,0,0,0,1.813Zm0-3.625H6.344a.906.906,0,0,0,0-1.812H.906a.906.906,0,0,0,0,1.813ZM8.156,14.5H.906a.906.906,0,0,0,0,1.813h7.25a.906.906,0,0,0,0-1.812Z" transform="translate(173.008 21.928)"/>
  </g>
</svg>
