<svg xmlns="http://www.w3.org/2000/svg" width="52" height="54" viewBox="0 0 52 54">
  <g id="circle-user" transform="translate(-166.008 -9.428)">
    <rect id="Rectangle_108" data-name="Rectangle 108" width="52" height="54" transform="translate(166.008 9.428)" fill="none"/>
    <path id="circle-user-2" data-name="circle-user" d="M14.5,0A14.5,14.5,0,1,0,29,14.5,14.5,14.5,0,0,0,14.5,0Zm0,27.188a12.606,12.606,0,0,1-7.2-2.257,5.428,5.428,0,0,1,5.392-4.993h3.625a5.427,5.427,0,0,1,5.393,4.993A12.629,12.629,0,0,1,14.5,27.188ZM23.319,23.6a7.25,7.25,0,0,0-7.006-5.477H12.688A7.248,7.248,0,0,0,5.681,23.6a12.688,12.688,0,1,1,17.638,0ZM14.5,7.25a4.531,4.531,0,1,0,4.531,4.531A4.53,4.53,0,0,0,14.5,7.25Zm0,7.25a2.719,2.719,0,1,1,2.719-2.719A2.719,2.719,0,0,1,14.5,14.5Z" transform="translate(177.508 21.927)"/>
  </g>
</svg>
