<svg id="Group_98" data-name="Group 98" xmlns="http://www.w3.org/2000/svg" width="44.011" height="44.011" viewBox="0 0 44.011 44.011">
  <rect id="Rectangle_123" data-name="Rectangle 123" width="44.011" height="44.011" transform="translate(0 0)" fill="none"/>
  <path id="pen" d="M25.052,2.858,23.147.952a3.247,3.247,0,0,0-4.594,0L2.292,17.214A3.246,3.246,0,0,0,1.42,18.8l-1.4,6.237a.831.831,0,0,0,.794.97.826.826,0,0,0,.162-.016s4.3-.912,6.237-1.368a3.2,3.2,0,0,0,1.536-.858L25.062,7.449A3.247,3.247,0,0,0,25.052,2.858ZM7.595,22.613a1.569,1.569,0,0,1-.76.426c-1.254.3-3.537.79-4.95,1.093L3,19.154a1.622,1.622,0,0,1,.437-.792L16.017,5.785l4.2,4.2ZM23.91,6.3,21.368,8.839l-4.2-4.2L19.7,2.1a1.63,1.63,0,0,1,2.3,0l1.905,1.905A1.623,1.623,0,0,1,23.91,6.3Z" transform="translate(9 9.003)"/>
</svg>
