<svg xmlns="http://www.w3.org/2000/svg" width="52" height="54" viewBox="0 0 52 54">
  <g id="food" transform="translate(-223.008 -9.428)">
    <rect id="Rectangle_108" data-name="Rectangle 108" width="52" height="54" transform="translate(223.008 9.428)" fill="none"/>
    <path id="user-headset" d="M11.764,5.049H11.8a5.034,5.034,0,0,1,3.736,8.411h0l.453,0a2.507,2.507,0,0,0,2.131-1.189,6.656,6.656,0,0,0,.393-2.177A6.732,6.732,0,1,0,7.592,15.329a1.271,1.271,0,0,1-.019-.184,3.325,3.325,0,0,1,.468-1.683,5.025,5.025,0,0,1,3.723-8.414ZM2.524,11.78a.838.838,0,0,0,.841-.841V10.1a8.414,8.414,0,1,1,16.829,0v.841a4.213,4.213,0,0,1-4.207,4.207H14.3a1.686,1.686,0,0,0-1.683-1.683H10.939a1.683,1.683,0,0,0,0,3.366h5.049a5.9,5.9,0,0,0,5.89-5.89V10.1a10.1,10.1,0,0,0-20.194,0v.841A.838.838,0,0,0,2.524,11.78ZM16.55,18.511H7.01A7.011,7.011,0,0,0,0,25.522a1.4,1.4,0,0,0,1.4,1.4H22.156a1.4,1.4,0,0,0,1.4-1.4A7.011,7.011,0,0,0,16.55,18.511ZM1.69,25.243a5.336,5.336,0,0,1,5.322-5.049h9.534a5.336,5.336,0,0,1,5.322,5.049Z" transform="translate(237.007 23.428)" fill="#ec8658"/>
  </g>
</svg>
