<svg xmlns="http://www.w3.org/2000/svg" width="52" height="54" viewBox="0 0 52 54">
  <g id="food" transform="translate(-223.008 -9.428)">
    <rect id="Rectangle_108" data-name="Rectangle 108" width="52" height="54" transform="translate(223.008 9.428)" fill="none"/>
    <path id="credit-card" d="M11.558,48.951h6.164a.771.771,0,0,0,0-1.541H11.558a.771.771,0,1,0,0,1.541Zm-6.164,0H8.476a.771.771,0,0,0,0-1.541H5.394a.771.771,0,1,0,0,1.541ZM24.657,32H3.082A3.082,3.082,0,0,0,0,35.082v15.41a3.082,3.082,0,0,0,3.082,3.082H24.657a3.082,3.082,0,0,0,3.082-3.082V35.082A3.083,3.083,0,0,0,24.657,32ZM26.2,50.492a1.543,1.543,0,0,1-1.541,1.541H3.082a1.543,1.543,0,0,1-1.541-1.541V42.787H26.2Zm0-9.246H1.541V38.164H26.2Zm0-4.623H1.541V35.082a1.543,1.543,0,0,1,1.541-1.541H24.657A1.543,1.543,0,0,1,26.2,35.082Z" transform="translate(235.008 -6.572)" fill="#ec8658"/>
  </g>
</svg>
