<svg xmlns="http://www.w3.org/2000/svg" width="52" height="54" viewBox="0 0 52 54">
  <g id="food" transform="translate(-223.008 -9.428)">
    <rect id="Rectangle_108" data-name="Rectangle 108" width="52" height="54" transform="translate(223.008 9.428)" fill="none"/>
    <path id="motorcycle" d="M22.45,36.416H18.963l2.48,4.789a6.177,6.177,0,0,1,2.112-.373A5.892,5.892,0,1,1,20.182,41.9l-.69-1.311a7.35,7.35,0,0,0-3.3,6.137v.736a.738.738,0,0,1-.736.736H13.985a.738.738,0,0,1-.736-.736v-.368A7.728,7.728,0,0,0,5.52,39.361H2.208a.736.736,0,1,1,0-1.472H5.52a9.176,9.176,0,0,1,5.143,1.569l5.861-4.508-.777-1.477H12.513a.736.736,0,1,1,0-1.472h3.234a1.48,1.48,0,0,1,1.307.787l.616,1.251,2.392-1.809A1.1,1.1,0,0,1,20.734,32H22.45a1.1,1.1,0,0,1,1.1,1.1v2.208a1.1,1.1,0,0,1-1.1,1.1Zm-.368-1.472V33.472H20.858l-1.914,1.472ZM11.846,40.4a9.1,9.1,0,0,1,2.866,6.316h.009A8.779,8.779,0,0,1,18.8,39.273l-1.578-3ZM22.9,47.066l-2.024-3.855a4.42,4.42,0,1,0,1.3-.685l2.029,3.851a.742.742,0,0,1-.308,1,.731.731,0,0,1-1-.308Zm-11.124-.345a5.888,5.888,0,1,1-5.888-5.888A5.888,5.888,0,0,1,11.777,46.721Zm-10.3,0a4.417,4.417,0,0,0,8.773.736H7.163a1.472,1.472,0,1,1,0-1.472h3.082a4.417,4.417,0,0,0-8.773.736Z" transform="translate(234.007 -5.573)" fill="#ec8658"/>
  </g>
</svg>
