<svg xmlns="http://www.w3.org/2000/svg" width="52" height="54" viewBox="0 0 52 54">
  <g id="food" transform="translate(-223.008 -9.428)">
    <rect id="Rectangle_108" data-name="Rectangle 108" width="52" height="54" transform="translate(223.008 9.428)" fill="none"/>
    <path id="pan-food" d="M30.136,6.441l-2.29-3.569A2.539,2.539,0,0,0,24.333,2.1l-.951.609A13.551,13.551,0,0,0,2.058,16.62l-.884.566A2.548,2.548,0,0,0,.4,20.7l2.29,3.569a2.3,2.3,0,0,0,1.6,1.066,2.6,2.6,0,0,0,.55.06,2.524,2.524,0,0,0,1.367-.4l.951-.609a13.336,13.336,0,0,0,8.123,2.76,13.562,13.562,0,0,0,13.2-16.62l.884-.566A2.545,2.545,0,0,0,30.136,6.441ZM5.293,23.613a.847.847,0,0,1-1.171-.257l-2.29-3.569a.85.85,0,0,1,.257-1.173l.469-.3A13.173,13.173,0,0,0,5.813,23.28Zm21.577-7.5a11.872,11.872,0,1,1-1.6-8.949A11.8,11.8,0,0,1,26.87,16.111Zm1.58-7.586-.469.3a13.173,13.173,0,0,0-3.256-4.966l.52-.334a.865.865,0,0,1,.639-.114.84.84,0,0,1,.532.371l2.29,3.569A.846.846,0,0,1,28.45,8.525Zm-14.876,8.44H11.379l-.848-.848.036-.036a.848.848,0,1,0-1.2-1.2L8.1,16.153a.848.848,0,0,0,0,1.2.856.856,0,0,0,.6.249.844.844,0,0,0,.6-.249l.037-.038.848.848v2.194a3.393,3.393,0,1,0,3.393-3.392Zm0,5.089a1.7,1.7,0,0,1-1.7-1.7v-1.7h1.7a1.7,1.7,0,0,1,0,3.393ZM22.984,9.58,18.065,14.5a.848.848,0,0,0,0,1.2A4.325,4.325,0,1,0,24.182,9.58.841.841,0,0,0,22.984,9.58Zm0,4.92a2.633,2.633,0,0,1-3.02.5l3.521-3.521A2.646,2.646,0,0,1,22.984,14.5ZM11.878,8.482h6.786a.848.848,0,0,0,.848-.848,4.241,4.241,0,1,0-8.482,0A.851.851,0,0,0,11.878,8.482ZM15.27,5.089a2.547,2.547,0,0,1,2.4,1.7h-4.8A2.546,2.546,0,0,1,15.27,5.089Zm-1.7,7.634a.848.848,0,1,0,.848-.848A.848.848,0,0,0,13.574,12.724Zm5.938,7.634a.848.848,0,1,0,.848.848A.848.848,0,0,0,19.512,20.358ZM9.084,9.58a.848.848,0,0,0-1.2,0l-1.7,1.7a.848.848,0,0,0,1.2,1.2l1.7-1.7A.843.843,0,0,0,9.084,9.58Z" transform="translate(234.005 22.427)" fill="#ec8658"/>
  </g>
</svg>
