<svg xmlns="http://www.w3.org/2000/svg" width="17" height="16.998" viewBox="0 0 17 16.998">
  <path id="Path_79" data-name="Path 79" d="M52.5,8.141A4.358,4.358,0,1,0,56.854,12.5,4.351,4.351,0,0,0,52.5,8.141Zm0,7.192A2.833,2.833,0,1,1,55.329,12.5,2.838,2.838,0,0,1,52.5,15.333Zm5.552-7.37a1.016,1.016,0,1,1-1.016-1.017A1.014,1.014,0,0,1,58.048,7.963Zm2.886,1.032a5.031,5.031,0,0,0-1.373-3.562A5.063,5.063,0,0,0,56,4.06c-1.4-.08-5.609-.08-7.012,0a5.055,5.055,0,0,0-3.561,1.369,5.047,5.047,0,0,0-1.373,3.562c-.08,1.4-.08,5.61,0,7.013a5.031,5.031,0,0,0,1.373,3.562,5.069,5.069,0,0,0,3.561,1.373c1.4.08,5.609.08,7.012,0a5.03,5.03,0,0,0,3.561-1.373A5.064,5.064,0,0,0,60.934,16C61.014,14.6,61.014,10.4,60.934,8.994ZM59.122,17.51a2.869,2.869,0,0,1-1.616,1.616c-1.119.444-3.774.341-5.01.341s-3.895.1-5.01-.341a2.868,2.868,0,0,1-1.616-1.616c-.444-1.119-.341-3.774-.341-5.011s-.1-3.9.341-5.011a2.868,2.868,0,0,1,1.616-1.616c1.119-.444,3.774-.341,5.01-.341s3.895-.1,5.01.341a2.868,2.868,0,0,1,1.616,1.616c.444,1.119.341,3.774.341,5.011S59.565,16.395,59.122,17.51Z" transform="translate(-43.994 -4)" fill="#fff"/>
</svg>
