<svg xmlns="http://www.w3.org/2000/svg" width="20.4" height="20.4" viewBox="0 0 20.4 20.4"  fill="#fff">
  <path id="linkedin" d="M18.943,32H1.453A1.463,1.463,0,0,0,0,33.471V50.929A1.463,1.463,0,0,0,1.453,52.4h17.49A1.467,1.467,0,0,0,20.4,50.929V33.471A1.467,1.467,0,0,0,18.943,32ZM6.166,49.486H3.142V39.75H6.17v9.736ZM4.654,38.421a1.753,1.753,0,1,1,1.753-1.753A1.754,1.754,0,0,1,4.654,38.421ZM17.5,49.486H14.476V44.75c0-1.129-.023-2.582-1.571-2.582-1.576,0-1.817,1.229-1.817,2.5v4.818H8.064V39.75h2.9v1.33h.041a3.185,3.185,0,0,1,2.864-1.571c3.06,0,3.629,2.017,3.629,4.64Z" transform="translate(0 -32)"/>
</svg>
