<svg xmlns="http://www.w3.org/2000/svg" width="40.039" height="40.039" viewBox="0 0 40.039 40.039">
  <g id="Group_2" data-name="Group 2" transform="translate(-519.046 -184.576)">
    <path id="Path_183" data-name="Path 183" d="M539.065,186.458A18.138,18.138,0,1,0,557.2,204.6a18.157,18.157,0,0,0-18.137-18.137m0,38.157A20.02,20.02,0,1,1,559.085,204.6a20.042,20.042,0,0,1-20.019,20.019" fill="#000"/>
    <path id="Path_184" data-name="Path 184" d="M545.878,195.69A15.721,15.721,0,1,0,561.6,211.411a15.738,15.738,0,0,0-15.721-15.721m0,32.553a16.831,16.831,0,1,1,16.832-16.832,16.851,16.851,0,0,1-16.832,16.832" transform="translate(-6.744 -6.747)" fill="#000"/>
    <path id="Path_185" data-name="Path 185" d="M562.157,219.849A7.839,7.839,0,1,0,570,227.688a7.848,7.848,0,0,0-7.839-7.839m0,16.811a8.972,8.972,0,1,1,8.972-8.972,8.982,8.982,0,0,1-8.972,8.972" transform="translate(-23.024 -23.024)" fill="#000"/>
    <path id="Path_186" data-name="Path 186" d="M584.687,224.842l-.256,0c-1.849-.033-3.667-1.283-5.591-2.6a33.558,33.558,0,0,0-3.1-1.97l.535-1a34.183,34.183,0,0,1,3.211,2.034c1.78,1.224,3.461,2.379,4.97,2.407.14,0,.276,0,.41,0l.018,1.133h-.192" transform="translate(-38.232 -23.396)" fill="#000"/>
    <path id="Path_187" data-name="Path 187" d="M573.624,237.153l-.256,0c-1.849-.033-3.667-1.283-5.591-2.6-2.411-1.657-5.144-3.535-8.339-3.235l-.106-1.128c3.6-.34,6.516,1.663,9.087,3.428,1.78,1.224,3.461,2.379,4.97,2.407a10.431,10.431,0,0,0,1.186-.04l.107,1.128c-.337.032-.685.048-1.058.048" transform="translate(-27.169 -30.732)" fill="#000"/>
    <path id="Path_188" data-name="Path 188" d="M567.956,263.916c-2.364-1.624-5.042-3.466-8.2-3.209l-.092-1.129c3.558-.29,6.413,1.672,8.933,3.4Z" transform="translate(-27.394 -50.563)" fill="#000"/>
    <path id="Path_189" data-name="Path 189" d="M569.008,251.678a15.655,15.655,0,0,1-4.439-2.436c-2.412-1.657-5.146-3.535-8.34-3.233a11.214,11.214,0,0,0-1.408.226l-.248-1.105a12.384,12.384,0,0,1,1.549-.248c3.6-.34,6.517,1.661,9.087,3.427a14.969,14.969,0,0,0,4.089,2.276Z" transform="translate(-23.96 -40.645)" fill="#000"/>
  </g>
</svg>
