<svg xmlns="http://www.w3.org/2000/svg" width="52" height="54" viewBox="0 0 52 54">
  <g id="circle-user" transform="translate(-166.008 -9.428)">
    <rect id="Rectangle_108" data-name="Rectangle 108" width="52" height="54" transform="translate(166.008 9.428)" fill="none"/>
    <path id="clipboard-list" d="M6.678,7.75h9.54a.969.969,0,0,0,0-1.937H14.734a3.891,3.891,0,0,0,.529-1.937,3.816,3.816,0,1,0-7.1,1.938H6.678a.969.969,0,0,0,0,1.938Zm4.77-5.812A1.938,1.938,0,1,1,9.54,3.875,1.925,1.925,0,0,1,11.448,1.938ZM19.08,3.875a.969.969,0,0,0,0,1.938A1.925,1.925,0,0,1,20.988,7.75V27.125a1.925,1.925,0,0,1-1.908,1.938H3.816a1.925,1.925,0,0,1-1.908-1.938V7.75A1.925,1.925,0,0,1,3.816,5.813a.969.969,0,0,0,0-1.937A3.85,3.85,0,0,0,0,7.75V27.125A3.85,3.85,0,0,0,3.816,31H19.08A3.85,3.85,0,0,0,22.9,27.125V7.75A3.85,3.85,0,0,0,19.08,3.875ZM4.293,15.5a1.431,1.431,0,1,0,1.431-1.453A1.443,1.443,0,0,0,4.293,15.5Zm1.431,4.359a1.453,1.453,0,1,0,1.431,1.453A1.442,1.442,0,0,0,5.724,19.859Zm12.4-5.328H10.494a.969.969,0,0,0,0,1.937h7.632a.969.969,0,0,0,0-1.937Zm0,5.813H10.494a.969.969,0,0,0,0,1.937h7.632a.969.969,0,0,0,0-1.937Z" transform="translate(180.607 20.428)"/>
  </g>
</svg>
