<svg xmlns="http://www.w3.org/2000/svg" width="18" height="18.018" viewBox="0 0 18 18.018" fill="#fff">
  <path id="paper-plane" d="M17.531.2a1.124,1.124,0,0,0-1.2-.049L.569,9.126A1.194,1.194,0,0,0,0,10.174a1.165,1.165,0,0,0,.69.97l3.632,1.514L6.5,17.813c.052.156.157.206.224.206a.284.284,0,0,0,.2-.079l3.018-2.9,4.237,1.765a1.12,1.12,0,0,0,.433.087,1.141,1.141,0,0,0,.552-.144,1.126,1.126,0,0,0,.562-.811L17.976,1.328A1.073,1.073,0,0,0,17.531.2Zm-16.4,9.937L14.5,2.492,4.362,11.483Zm5.937,6.134L5.319,12.138,13.4,4.98l-5.965,8.2a.562.562,0,0,0,.246.853l1.211.484Zm7.6-.669-5.9-2.342,7.943-10.92Z" transform="translate(-0.002)"/>
</svg>
