<svg xmlns="http://www.w3.org/2000/svg" width="27.43" height="24.037" viewBox="0 0 27.43 24.037">
  <path id="phone-rotary" d="M13.733,43.16a4.292,4.292,0,1,0,4.292,4.292A4.3,4.3,0,0,0,13.733,43.16Zm0,6.868a2.575,2.575,0,1,1,2.575-2.575A2.576,2.576,0,0,1,13.733,50.028Zm13.1-13.4a20.857,20.857,0,0,0-26.207,0A1.711,1.711,0,0,0,0,37.972v3.471a.858.858,0,0,0,.858.858H4.29a.858.858,0,0,0,0-1.717H1.714L1.7,37.961a19.347,19.347,0,0,1,12.032-4.244A18.979,18.979,0,0,1,25.7,37.969v2.616H23.176a.858.858,0,0,0,0,1.717h3.386a.859.859,0,0,0,.858-.858V37.972A1.534,1.534,0,0,0,26.835,36.63ZM19.871,40.6a3.416,3.416,0,0,0-2.71-1.694c0-.012.005-.023.005-.034V37.151a.858.858,0,0,0-1.717,0v1.717H12.016V37.151a.858.858,0,0,0-1.717,0v1.717c0,.013.007.023.007.036A3.416,3.416,0,0,0,7.6,40.6l-5.43,9.5a3.435,3.435,0,0,0-.453,1.7v.8a3.444,3.444,0,0,0,3.434,3.434H22.269A3.444,3.444,0,0,0,25.7,52.6v-.8a3.435,3.435,0,0,0-.453-1.7ZM23.986,52.6a1.717,1.717,0,0,1-1.717,1.717H5.148A1.717,1.717,0,0,1,3.431,52.6v-.8a1.718,1.718,0,0,1,.226-.852L9.087,41.5a1.671,1.671,0,0,1,1.491-.913h6.315a1.714,1.714,0,0,1,1.488.863l5.43,9.5a1.717,1.717,0,0,1,.226.852V52.6Z" transform="translate(0.003 -32)" fill="#ec8658"/>
</svg>
