<svg xmlns="http://www.w3.org/2000/svg" width="44" height="44" viewBox="0 0 44 44">
  <g id="Group_495" data-name="Group 495" transform="translate(-0.037 -0.186)">
    <rect id="Rectangle_123" data-name="Rectangle 123" width="44" height="44" transform="translate(0.037 0.186)" fill="none"/>
    <path id="trash-can" d="M17.962,2.661H13.97L12.572.8a1.986,1.986,0,0,0-1.6-.8H7.65a1.99,1.99,0,0,0-1.6.8l-1.4,1.861H.665a.665.665,0,0,0,0,1.331h17.3a.665.665,0,1,0,0-1.331Zm-11.642,0L7.12,1.6a.668.668,0,0,1,.53-.265h3.326a.665.665,0,0,1,.53.265l.8,1.065ZM16.631,5.322a.667.667,0,0,0-.665.665V17.962a2,2,0,0,1-2,2H4.657a2,2,0,0,1-2-2V5.987a.665.665,0,1,0-1.331,0V17.962a3.33,3.33,0,0,0,3.326,3.326H13.97A3.33,3.33,0,0,0,17.3,17.962V5.987A.667.667,0,0,0,16.631,5.322ZM5.987,17.3V7.983a.665.665,0,0,0-1.331,0V17.3a.665.665,0,0,0,1.331,0Zm3.992,0V7.983a.665.665,0,0,0-1.331,0V17.3a.665.665,0,0,0,1.331,0Zm3.992,0V7.983a.665.665,0,0,0-1.331,0V17.3a.665.665,0,0,0,1.331,0Z" transform="translate(13.037 11.484)"/>
  </g>
</svg>
